<svg xmlns="http://www.w3.org/2000/svg" width="181" height="54" fill="none">
  <rect width="180" height="54" x=".5" fill="#fff" rx="10" />
  <path fill="#000"
    d="M90.853 9.462H89.61v8.765h1.245V9.462ZM37.725 14.745a6.821 6.821 0 0 0 1.56-4.886 6.94 6.94 0 0 0-4.49 2.323 6.493 6.493 0 0 0-1.602 4.706 5.74 5.74 0 0 0 4.532-2.143ZM41.552 26.071a6.929 6.929 0 0 1 3.3-5.813 7.09 7.09 0 0 0-5.588-3.02c-1.438-.151-2.85.409-4.003.867-.732.29-1.36.54-1.825.54-.53 0-1.176-.26-1.9-.551-.947-.38-2.027-.814-3.152-.791a7.441 7.441 0 0 0-6.262 3.819c-2.708 4.688-.688 11.577 1.905 15.367 1.298 1.855 2.815 3.928 4.8 3.854.9-.037 1.538-.306 2.198-.584.763-.321 1.555-.654 2.812-.654 1.186 0 1.944.323 2.67.632.698.297 1.367.582 2.358.56 2.083-.034 3.396-1.864 4.648-3.737a15.35 15.35 0 0 0 2.126-4.33 6.695 6.695 0 0 1-4.087-6.159Z" />
  <path fill="#000" fill-rule="evenodd"
    d="M59.468 35.646h6.627l1.59 4.699h2.855l-6.277-17.386h-2.916L55.07 40.346h2.807l1.591-4.7Zm5.94-2.169h-5.253l2.59-7.626h.073l2.59 7.626ZM84.096 34.008c0 3.939-2.108 6.47-5.29 6.47a4.296 4.296 0 0 1-3.988-2.218h-.06v6.278h-2.602V27.67h2.519v2.108h.047a4.497 4.497 0 0 1 4.037-2.241c3.216 0 5.337 2.543 5.337 6.47Zm-2.674 0c0-2.566-1.326-4.254-3.35-4.254-1.988 0-3.325 1.723-3.325 4.254 0 2.554 1.337 4.264 3.325 4.264 2.024 0 3.35-1.675 3.35-4.264ZM92.76 40.477c3.18 0 5.289-2.53 5.289-6.47 0-3.927-2.12-6.47-5.338-6.47a4.497 4.497 0 0 0-4.035 2.24h-.048V27.67h-2.519v16.869h2.602V38.26h.06a4.297 4.297 0 0 0 3.988 2.217Zm-.735-10.722c2.024 0 3.35 1.687 3.35 4.253 0 2.59-1.326 4.264-3.35 4.264-1.988 0-3.325-1.71-3.325-4.264 0-2.53 1.337-4.254 3.325-4.254Z"
    clip-rule="evenodd" />
  <path fill="#000"
    d="M107.273 35.5c.192 1.725 1.867 2.857 4.156 2.857 2.193 0 3.771-1.132 3.771-2.687 0-1.35-.952-2.157-3.205-2.71l-2.253-.544c-3.193-.77-4.675-2.264-4.675-4.686 0-3 2.614-5.06 6.326-5.06 3.674 0 6.192 2.06 6.277 5.06h-2.626c-.157-1.735-1.592-2.783-3.688-2.783-2.095 0-3.53 1.06-3.53 2.602 0 1.23.916 1.953 3.157 2.506l1.916.47c3.567.844 5.049 2.277 5.049 4.82 0 3.252-2.591 5.29-6.712 5.29-3.855 0-6.458-1.99-6.627-5.134h2.664ZM123.559 27.67v-3h-2.614v3h-1.843v2.06h1.843v7.265c0 2.458 1 3.422 3.567 3.422.484.01.968-.031 1.445-.12v-2.048c-.284.035-.57.055-.856.06-1.06 0-1.542-.506-1.542-1.591V29.73h2.41v-2.06h-2.41Z" />
  <path fill="#000" fill-rule="evenodd"
    d="M127.367 34.008c0-3.988 2.349-6.494 6.012-6.494 3.675 0 6.012 2.506 6.012 6.494 0 3.999-2.325 6.494-6.012 6.494-3.686 0-6.012-2.495-6.012-6.494Zm9.373 0c0-2.736-1.253-4.35-3.361-4.35-2.109 0-3.361 1.626-3.361 4.35 0 2.746 1.252 4.349 3.361 4.349 2.108 0 3.361-1.602 3.361-4.35Z"
    clip-rule="evenodd" />
  <path fill="#000"
    d="M144.021 27.67h-2.482v12.675h2.602v-7.518a2.613 2.613 0 0 1 1.607-2.72 2.62 2.62 0 0 1 1.104-.197c.396-.011.791.042 1.169.158v-2.434a3.999 3.999 0 0 0-.891-.097 3.023 3.023 0 0 0-3.049 2.29h-.06v-2.158Z" />
  <path fill="#000" fill-rule="evenodd"
    d="M160.012 36.622c-.35 2.3-2.591 3.88-5.458 3.88-3.687 0-5.976-2.47-5.976-6.434 0-3.976 2.301-6.554 5.867-6.554 3.507 0 5.712 2.409 5.712 6.252v.891h-8.952v.157a3.294 3.294 0 0 0 .894 2.565 3.311 3.311 0 0 0 2.515 1.026 2.87 2.87 0 0 0 2.928-1.783h2.47Zm-8.795-3.783h6.337a3.047 3.047 0 0 0-3.109-3.217 3.208 3.208 0 0 0-3.228 3.217ZM61.432 10.115a3.695 3.695 0 0 0-1.602-.241h-3.017v8.353h3.017c2.488 0 3.93-1.534 3.93-4.203a3.696 3.696 0 0 0-2.328-3.909Zm-1.747 6.93H58.11v-5.99h1.575a2.635 2.635 0 0 1 2.755 2.986 2.627 2.627 0 0 1-2.755 3.005ZM65.225 15.072a2.985 2.985 0 0 1 5.183-2.293 2.987 2.987 0 0 1 .763 2.293 2.989 2.989 0 0 1-4.183 3.02 2.989 2.989 0 0 1-1.763-3.02Zm4.666 0c0-1.366-.614-2.165-1.691-2.165-1.082 0-1.69.799-1.69 2.165 0 1.378.609 2.17 1.69 2.17 1.077 0 1.691-.798 1.691-2.17Z"
    clip-rule="evenodd" />
  <path fill="#000"
    d="M77.785 18.227h1.29l1.732-6.304h-1.245l-1.123 4.81h-.099l-1.296-4.81h-1.193l-1.296 4.81h-.094l-1.129-4.81H72.07l1.738 6.304h1.278l1.298-4.643h.098l1.303 4.643ZM82.273 11.923h1.198v1.001h.093a1.887 1.887 0 0 1 1.881-1.123 2.049 2.049 0 0 1 2.182 2.345v4.081h-1.244v-3.769c0-1.013-.44-1.517-1.36-1.517a1.446 1.446 0 0 0-1.505 1.598v3.688h-1.245v-6.304Z" />
  <path fill="#000" fill-rule="evenodd"
    d="M92.584 15.072a2.987 2.987 0 1 1 5.947 0 2.987 2.987 0 1 1-5.947 0Zm4.666 0c0-1.366-.613-2.165-1.69-2.165-1.082 0-1.69.799-1.69 2.165 0 1.378.608 2.17 1.69 2.17 1.077 0 1.69-.798 1.69-2.17ZM102.181 14.562c-1.5.093-2.345.748-2.345 1.882a1.897 1.897 0 0 0 .632 1.41 1.903 1.903 0 0 0 1.47.477 2.12 2.12 0 0 0 1.893-.99h.099v.886h1.197V13.92c0-1.332-.891-2.119-2.472-2.119-1.43 0-2.449.695-2.576 1.778h1.205c.138-.446.619-.701 1.314-.701.85 0 1.291.376 1.291 1.042v.544l-1.708.098Zm1.708.817v.527a1.497 1.497 0 0 1-.524 1.035 1.49 1.49 0 0 1-1.109.343c-.677 0-1.169-.33-1.169-.898 0-.556.394-.85 1.262-.909l1.54-.098ZM106.766 15.072c0-1.992 1.024-3.254 2.617-3.254a2.081 2.081 0 0 1 1.933 1.106h.093V9.462h1.245v8.765h-1.193v-.996h-.098a2.187 2.187 0 0 1-1.98 1.1c-1.603 0-2.617-1.262-2.617-3.259Zm1.286 0c0 1.337.63 2.142 1.684 2.142 1.049 0 1.697-.816 1.697-2.136 0-1.314-.655-2.142-1.697-2.142-1.047 0-1.684.81-1.684 2.136ZM117.934 13.845a2.987 2.987 0 0 0-.139 1.227 2.994 2.994 0 0 0 .761 2.297 2.987 2.987 0 0 0 5.185-2.297 2.987 2.987 0 0 0-5.807-1.227Zm2.836-.938c1.077 0 1.691.799 1.691 2.165 0 1.372-.614 2.17-1.691 2.17-1.081 0-1.69-.792-1.69-2.17 0-1.366.609-2.165 1.69-2.165Z"
    clip-rule="evenodd" />
  <path fill="#000"
    d="M125.414 11.923h1.198v1.001h.093a1.89 1.89 0 0 1 1.881-1.123 2.047 2.047 0 0 1 2.112 1.436c.091.294.115.605.07.909v4.081h-1.244v-3.769c0-1.013-.44-1.517-1.36-1.517a1.445 1.445 0 0 0-1.506 1.598v3.688h-1.244v-6.304ZM137.793 11.952v-1.598h-1.245v1.598h-1.001V13h1.001v3.56c0 1.215.551 1.702 1.934 1.702.227-.002.454-.024.677-.064v-1.036a4.15 4.15 0 0 1-.474.029c-.62 0-.892-.29-.892-.95V13h1.366v-1.048h-1.366ZM140.859 9.462h1.234v3.474h.098a1.938 1.938 0 0 1 1.922-1.13 2.083 2.083 0 0 1 1.639.665 2.08 2.08 0 0 1 .532 1.686v4.07h-1.245v-3.763c0-1.007-.469-1.517-1.348-1.517a1.471 1.471 0 0 0-1.587 1.598v3.682h-1.245V9.462Z" />
  <path fill="#000" fill-rule="evenodd"
    d="M152.503 17.933a2.561 2.561 0 0 0 1.035-1.408h-1.198a1.507 1.507 0 0 1-1.5.764 1.663 1.663 0 0 1-1.593-1.122 1.671 1.671 0 0 1-.086-.684v-.07h4.452v-.434c0-1.98-1.058-3.178-2.812-3.178a2.91 2.91 0 0 0-2.807 2.063 2.914 2.914 0 0 0-.1 1.23 2.866 2.866 0 0 0 1.703 3.022 2.86 2.86 0 0 0 1.209.233 2.558 2.558 0 0 0 1.697-.416Zm-.157-3.44h-3.185a1.628 1.628 0 0 1 .472-1.16 1.606 1.606 0 0 1 1.161-.473 1.523 1.523 0 0 1 1.552 1.633Z"
    clip-rule="evenodd" />
</svg>