<svg xmlns="http://www.w3.org/2000/svg" width="181" height="54" fill="none">
  <g clip-path="url(#a)">
    <rect width="180" height="54" x=".5" fill="#fff" rx="10" />
    <path fill="#fff" d="M.5-1h180v56H.5V-1Z" />
    <path fill="#EA4335"
      d="M28.102 25.867 13.97 40.933c.4 1.6 1.866 2.8 3.733 2.8.667 0 1.333-.133 2-.533l16-9.2-7.6-8.133Z" />
    <path fill="#FBBC04"
      d="m42.503 23.333-6.934-4-7.733 6.934L35.569 34l6.8-4c1.2-.667 2-1.867 2-3.333.134-1.467-.666-2.667-1.866-3.334Z" />
    <path fill="#4285F4"
      d="M13.97 12.4c-.134.267-.134.667-.134.933V40c0 .4 0 .667.133.933l14.667-14.666L13.969 12.4Z" />
    <path fill="#34A853"
      d="m28.236 26.667 7.333-7.334-16-9.2c-.533-.4-1.2-.533-2-.533-1.733 0-3.333 1.2-3.733 2.8l14.4 14.267Z" />
    <path fill="#000"
      d="M63.695 13.6c0 1.067-.266 2-.933 2.667-.8.8-1.733 1.2-2.933 1.2-1.2 0-2.134-.4-2.934-1.2-.8-.8-1.2-1.734-1.2-2.934 0-1.2.4-2.133 1.2-2.933.8-.8 1.734-1.2 2.934-1.2.533 0 1.2.133 1.6.267.533.266.933.533 1.333.933l-.8.8c-.267-.267-.533-.533-.933-.667-.4-.133-.8-.266-1.2-.266-.934 0-1.6.266-2.267.933-.533.667-.933 1.333-.933 2.267 0 .933.266 1.733.933 2.266.667.667 1.333.934 2.267.934.8 0 1.466-.267 2-.667.533-.4.8-1.067.933-1.867h-2.933V13.2h3.866v.4ZM69.83 9.333v.934h-3.6V12.8h3.334v.933h-3.333v2.534h3.6v1.066h-4.667v-8h4.667ZM74.232 10.267v7.066h-1.067v-7.066h-2.267v-.934h5.6v.934h-2.266ZM81.434 17.333h-1.067v-8h1.067v8ZM85.966 10.267v7.066H84.9v-7.066h-2.267v-.934H88.1v.934h-2.134ZM99.83 13.333c0 1.2-.4 2.134-1.2 2.934-.8.8-1.734 1.2-2.934 1.2-1.2 0-2.133-.4-2.933-1.2-.8-.8-1.2-1.734-1.2-2.934 0-1.2.4-2.133 1.2-2.933.8-.8 1.733-1.2 2.933-1.2 1.2 0 2.133.4 2.933 1.2.8.8 1.2 1.733 1.2 2.933Zm-7.2 0c0 .934.266 1.734.933 2.267.533.667 1.333.933 2.133.933.933 0 1.6-.266 2.133-.933a3.216 3.216 0 0 0 .934-2.267c0-.933-.267-1.733-.934-2.266-.533-.667-1.333-.934-2.133-.934-.933 0-1.6.267-2.133.934-.667.533-.934 1.333-.934 2.266ZM102.23 17.333h-1.066v-8h1.2l3.866 6.267V9.333h1.067v8h-1.067l-4.133-6.533v6.533h.133ZM91.297 29.067c-3.2 0-5.733 2.4-5.733 5.733a5.69 5.69 0 0 0 5.733 5.733c3.2 0 5.733-2.4 5.733-5.733 0-3.467-2.533-5.733-5.733-5.733Zm0 9.066c-1.733 0-3.2-1.466-3.2-3.466s1.467-3.467 3.2-3.467 3.2 1.333 3.2 3.467c0 2-1.467 3.466-3.2 3.466Zm-12.4-9.066c-3.2 0-5.733 2.4-5.733 5.733a5.69 5.69 0 0 0 5.733 5.733c3.2 0 5.733-2.4 5.733-5.733 0-3.467-2.533-5.733-5.733-5.733Zm0 9.066c-1.733 0-3.2-1.466-3.2-3.466s1.467-3.467 3.2-3.467 3.2 1.333 3.2 3.467c0 2-1.467 3.466-3.2 3.466Zm-14.8-7.333v2.4h5.733c-.133 1.333-.666 2.4-1.333 3.067-.8.8-2.133 1.733-4.4 1.733-3.6 0-6.267-2.8-6.267-6.4 0-3.6 2.8-6.4 6.267-6.4 1.867 0 3.333.8 4.4 1.733L70.23 25.2c-1.466-1.333-3.333-2.4-6-2.4-4.8 0-8.933 4-8.933 8.8 0 4.8 4.133 8.8 8.933 8.8 2.667 0 4.534-.8 6.134-2.533 1.6-1.6 2.133-3.867 2.133-5.6 0-.534 0-1.067-.133-1.467h-8.267Zm60.533 1.867c-.533-1.334-1.866-3.6-4.8-3.6-2.933 0-5.333 2.266-5.333 5.733 0 3.2 2.4 5.733 5.6 5.733 2.533 0 4.133-1.6 4.667-2.533l-1.867-1.333c-.667.933-1.467 1.6-2.8 1.6-1.333 0-2.133-.534-2.8-1.734l7.6-3.2-.267-.666Zm-7.733 1.866c0-2.133 1.733-3.333 2.933-3.333.934 0 1.867.533 2.134 1.2l-5.067 2.133ZM110.63 40h2.534V23.333h-2.534V40Zm-4-9.733c-.666-.667-1.733-1.334-3.066-1.334-2.8 0-5.467 2.534-5.467 5.734s2.533 5.6 5.467 5.6c1.333 0 2.4-.667 2.933-1.334h.133v.8c0 2.134-1.2 3.334-3.066 3.334-1.467 0-2.534-1.067-2.8-2L98.63 42c.667 1.467 2.267 3.333 5.067 3.333 2.933 0 5.333-1.733 5.333-5.866V29.333h-2.4v.934Zm-2.933 7.866c-1.733 0-3.2-1.466-3.2-3.466s1.467-3.467 3.2-3.467 3.067 1.467 3.067 3.467-1.334 3.466-3.067 3.466Zm32.533-14.8h-6V40h2.534v-6.267h3.466c2.8 0 5.467-2 5.467-5.2s-2.667-5.2-5.467-5.2Zm.134 8h-3.6V25.6h3.6c1.866 0 2.933 1.6 2.933 2.8-.133 1.467-1.2 2.933-2.933 2.933Zm15.333-2.4c-1.867 0-3.733.8-4.4 2.534l2.267.933c.533-.933 1.333-1.2 2.266-1.2 1.334 0 2.534.8 2.667 2.133v.134c-.4-.267-1.467-.667-2.533-.667-2.4 0-4.8 1.333-4.8 3.733 0 2.267 2 3.734 4.133 3.734 1.733 0 2.533-.8 3.2-1.6h.133V40h2.4v-6.4c-.266-2.933-2.533-4.667-5.333-4.667Zm-.267 9.2c-.8 0-2-.4-2-1.466 0-1.334 1.467-1.734 2.667-1.734 1.067 0 1.6.267 2.267.534-.267 1.6-1.6 2.666-2.934 2.666Zm14-8.8-2.8 7.2h-.133l-2.933-7.2h-2.667l4.4 10.134-2.533 5.6h2.533l6.8-15.734h-2.667ZM143.03 40h2.534V23.333h-2.534V40Z" />
  </g>
  <defs>
    <clipPath id="a">
      <rect width="180" height="54" x=".5" fill="#fff" rx="10" />
    </clipPath>
  </defs>
</svg>